# Blender 3.3.7
# www.blender.org
mtllib Arbol.mtl
o Arbol
v 0.000000 0.000000 -1.000000
v -0.866025 0.000000 -0.500000
v -0.866025 0.000000 0.500000
v 0.000000 0.000000 1.000000
v 0.866025 0.000000 0.500000
v 0.866025 0.000000 -0.500000
v 0.000000 1.839398 -1.000000
v -0.866025 1.839398 -0.500000
v -0.866025 1.839398 0.500000
v 0.000000 1.839398 1.000000
v 0.866025 1.839398 0.500000
v 0.866025 1.839398 -0.500000
v 0.000000 1.722662 -2.009757
v -1.740500 1.722662 -1.004878
v -1.740500 1.722662 1.004878
v 0.000000 1.722662 2.009757
v 1.740500 1.722662 1.004878
v 1.740500 1.722662 -1.004878
v 0.000000 2.470784 -1.539500
v -1.333246 2.470784 -0.769750
v -1.333246 2.470784 0.769750
v 0.000000 2.470784 1.539500
v 1.333246 2.470784 0.769750
v 1.333246 2.470784 -0.769750
v 0.000000 2.958950 -1.539500
v -1.333246 2.958950 -0.769750
v -1.333246 2.958950 0.769750
v 0.000000 2.958950 1.539500
v 1.333246 2.958950 0.769750
v 1.333246 2.958950 -0.769750
v 0.000000 3.412305 -1.893754
v -1.640039 3.412305 -0.946877
v -1.640039 3.412305 0.946877
v 0.000000 3.412305 1.893754
v 1.640039 3.412305 0.946877
v 1.640039 3.412305 -0.946877
v 0.000000 4.257498 -1.408790
v -1.220048 4.257498 -0.704395
v -1.220048 4.257498 0.704395
v 0.000000 4.257498 1.408790
v 1.220048 4.257498 0.704395
v 1.220048 4.257498 -0.704395
v 0.000000 4.973046 -1.589614
v -1.376646 4.973046 -0.794807
v -1.376646 4.973046 0.794807
v 0.000000 4.973046 1.589614
v 1.376646 4.973046 0.794807
v 1.376646 4.973046 -0.794807
v -0.059681 6.026808 -0.305589
v -0.326532 6.026808 -0.151523
v -0.326532 6.026808 0.156610
v -0.059681 6.026808 0.310677
v 0.207170 6.026808 0.156610
v 0.207170 6.026808 -0.151523
v 0.000000 0.000000 0.000000
v -0.059681 6.298941 0.002544
vn 0.5000 -0.0000 0.8660
vn -1.0000 -0.0000 -0.0000
vn 1.0000 -0.0000 -0.0000
vn -0.5000 -0.0000 0.8660
vn -0.5000 -0.0000 -0.8660
vn 0.5000 -0.0000 -0.8660
vn -0.1323 -0.9912 -0.0000
vn 0.0662 -0.9912 -0.1146
vn 0.0662 -0.9912 0.1146
vn -0.0662 -0.9912 0.1146
vn -0.0662 -0.9912 -0.1146
vn 0.1323 -0.9912 -0.0000
vn 0.4391 0.4781 -0.7606
vn 0.4391 0.4781 0.7606
vn -0.8783 0.4781 -0.0000
vn 0.8783 0.4781 -0.0000
vn -0.4391 0.4781 0.7606
vn -0.4391 0.4781 -0.7606
vn 0.4141 -0.5604 -0.7172
vn 0.4141 -0.5604 0.7172
vn -0.8282 -0.5604 -0.0000
vn 0.8282 -0.5604 -0.0000
vn -0.4141 -0.5604 0.7172
vn -0.4141 -0.5604 -0.7172
vn 0.8955 0.4450 -0.0000
vn -0.4478 0.4450 0.7756
vn -0.4478 0.4450 -0.7756
vn 0.4478 0.4450 -0.7756
vn 0.4478 0.4450 0.7756
vn -0.8955 0.4450 -0.0000
vn 0.4884 -0.2138 0.8460
vn -0.9769 -0.2138 -0.0000
vn 0.9769 -0.2138 -0.0000
vn -0.4884 -0.2138 0.8460
vn -0.4884 -0.2138 -0.8460
vn 0.4884 -0.2138 -0.8460
vn -0.3496 0.7150 0.6054
vn -0.3488 0.7164 -0.6042
vn 0.3391 0.7349 -0.5873
vn 0.3398 0.7336 0.5886
vn -0.7083 0.7059 -0.0000
vn 0.6694 0.7429 -0.0000
vn -0.0000 -1.0000 -0.0000
vn -0.7140 0.7001 -0.0000
vn 0.7140 0.7001 -0.0000
vn -0.3570 0.7001 0.6183
vn -0.3570 0.7001 -0.6183
vn 0.3570 0.7001 -0.6183
vn 0.3570 0.7001 0.6183
vt 0.000000 0.000000
vt 0.000000 0.000000
vt 0.000000 0.000000
vt 0.000000 0.000000
vt 0.000000 0.000000
vt 0.000000 0.000000
vt 0.000000 0.000000
vt 0.000000 0.000000
vt 0.000000 0.000000
vt 0.000000 0.000000
vt 0.000000 0.000000
vt 0.000000 0.000000
vt 0.000000 0.000000
vt 0.000000 0.000000
vt 0.000000 0.000000
vt 0.000000 0.000000
vt 0.000000 0.000000
vt 0.000000 0.000000
vt 0.000000 0.000000
vt 0.000000 0.000000
vt 0.000000 0.000000
vt 0.000000 0.000000
vt 0.000000 0.000000
vt 0.000000 0.000000
vt 0.000000 0.000000
vt 0.000000 0.000000
vt 0.000000 0.000000
vt 0.000000 0.000000
vt 0.000000 0.000000
vt 0.000000 0.000000
vt 0.000000 0.000000
vt 0.000000 0.000000
vt 0.000000 0.000000
vt 0.000000 0.000000
vt 0.000000 0.000000
vt 0.000000 0.000000
vt 0.000000 0.000000
vt 0.000000 0.000000
vt 0.000000 0.000000
vt 0.000000 0.000000
vt 0.000000 0.000000
vt 0.000000 0.000000
vt 0.000000 0.000000
vt 0.000000 0.000000
vt 0.000000 0.000000
vt 0.000000 0.000000
vt 0.000000 0.000000
vt 0.000000 0.000000
vt 0.000000 0.000000
vt 0.000000 0.000000
vt 0.000000 0.000000
vt 0.000000 0.000000
vt 0.000000 0.000000
vt 0.000000 0.000000
vt 0.000000 0.000000
vt 0.000000 0.000000
s 0
usemtl Hojas
f 12/12/7 18/18/7 17/17/7 11/11/7
f 10/10/8 16/16/8 15/15/8 9/9/8
f 8/8/9 14/14/9 13/13/9 7/7/9
f 7/7/10 13/13/10 18/18/10 12/12/10
f 11/11/11 17/17/11 16/16/11 10/10/11
f 9/9/12 15/15/12 14/14/12 8/8/12
f 13/13/13 19/19/13 24/24/13 18/18/13
f 17/17/14 23/23/14 22/22/14 16/16/14
f 15/15/15 21/21/15 20/20/15 14/14/15
f 18/18/16 24/24/16 23/23/16 17/17/16
f 16/16/17 22/22/17 21/21/17 15/15/17
f 14/14/18 20/20/18 19/19/18 13/13/18
f 24/24/3 30/30/3 29/29/3 23/23/3
f 22/22/4 28/28/4 27/27/4 21/21/4
f 20/20/5 26/26/5 25/25/5 19/19/5
f 19/19/6 25/25/6 30/30/6 24/24/6
f 23/23/1 29/29/1 28/28/1 22/22/1
f 21/21/2 27/27/2 26/26/2 20/20/2
f 25/25/19 31/31/19 36/36/19 30/30/19
f 29/29/20 35/35/20 34/34/20 28/28/20
f 27/27/21 33/33/21 32/32/21 26/26/21
f 30/30/22 36/36/22 35/35/22 29/29/22
f 28/28/23 34/34/23 33/33/23 27/27/23
f 26/26/24 32/32/24 31/31/24 25/25/24
f 36/36/25 42/42/25 41/41/25 35/35/25
f 34/34/26 40/40/26 39/39/26 33/33/26
f 32/32/27 38/38/27 37/37/27 31/31/27
f 31/31/28 37/37/28 42/42/28 36/36/28
f 35/35/29 41/41/29 40/40/29 34/34/29
f 33/33/30 39/39/30 38/38/30 32/32/30
f 41/41/31 47/47/31 46/46/31 40/40/31
f 39/39/32 45/45/32 44/44/32 38/38/32
f 42/42/33 48/48/33 47/47/33 41/41/33
f 40/40/34 46/46/34 45/45/34 39/39/34
f 38/38/35 44/44/35 43/43/35 37/37/35
f 37/37/36 43/43/36 48/48/36 42/42/36
f 46/46/37 52/52/37 51/51/37 45/45/37
f 44/44/38 50/50/38 49/49/38 43/43/38
f 43/43/39 49/49/39 54/54/39 48/48/39
f 47/47/40 53/53/40 52/52/40 46/46/40
f 45/45/41 51/51/41 50/50/41 44/44/41
f 48/48/42 54/54/42 53/53/42 47/47/42
f 51/51/44 56/56/44 50/50/44
f 54/54/45 56/56/45 53/53/45
f 52/52/46 56/56/46 51/51/46
f 50/50/47 56/56/47 49/49/47
f 49/49/48 56/56/48 54/54/48
f 53/53/49 56/56/49 52/52/49
usemtl Tronco
f 5/5/1 11/11/1 10/10/1 4/4/1
f 3/3/2 9/9/2 8/8/2 2/2/2
f 6/6/3 12/12/3 11/11/3 5/5/3
f 4/4/4 10/10/4 9/9/4 3/3/4
f 2/2/5 8/8/5 7/7/5 1/1/5
f 1/1/6 7/7/6 12/12/6 6/6/6
f 5/5/43 55/55/43 6/6/43
f 3/3/43 55/55/43 4/4/43
f 1/1/43 55/55/43 2/2/43
f 6/6/43 55/55/43 1/1/43
f 4/4/43 55/55/43 5/5/43
f 2/2/43 55/55/43 3/3/43
