# Blender 3.3.7
# www.blender.org
mtllib Avioneta.mtl
o Avioneta
v -2.606664 -1.000000 1.000000
v -2.606664 1.000000 1.000000
v -2.606664 -1.000000 -1.000000
v -2.606664 1.000000 -1.000000
v 1.825411 -1.000000 1.000000
v 1.825411 1.000000 1.000000
v 1.825411 -1.000000 -1.000000
v 1.825411 1.000000 -1.000000
v -3.557252 -0.741706 -0.741706
v -2.883967 -1.000000 -1.000000
v -2.883967 -1.000000 1.000000
v -3.557252 -0.741706 0.741706
v -2.883967 1.000000 1.000000
v -3.557252 0.741706 0.741706
v -2.883967 1.000000 -1.000000
v -3.557252 0.741706 -0.741706
v 0.815029 -1.000000 -1.000000
v 0.815029 1.000000 -1.000000
v 0.815029 -1.000000 1.000000
v 0.815029 1.000000 1.000000
v -2.091802 -1.000000 -1.000000
v -2.091802 1.000000 1.000000
v -2.091802 1.000000 -1.000000
v -2.091802 -1.000000 1.000000
v -1.632205 2.040384 -1.000000
v 0.355432 2.040384 -1.000000
v 0.355432 2.040384 1.000000
v -1.632205 2.040384 1.000000
v 3.173328 1.093210 -0.789053
v 3.173328 -0.484896 -0.789053
v 3.173328 -0.484896 0.789053
v 3.173328 1.093210 0.789053
v 4.576339 2.499940 -0.475111
v 4.576339 1.549718 -0.475111
v 4.576339 1.549718 0.475111
v 4.576339 2.499940 0.475111
v -1.608111 -0.182789 4.074507
v -1.608111 0.182789 4.074507
v -1.608111 -0.182789 0.913291
v -1.608111 0.182789 0.913291
v 0.391889 -0.182789 4.074507
v 0.391889 0.182789 4.074507
v 0.391889 -0.182789 0.913291
v 0.391889 0.182789 0.913291
v -1.513039 -0.165411 4.989484
v -1.044223 -0.079717 5.412112
v -1.357537 -0.136987 5.288327
v -1.044223 0.079717 5.412112
v -1.513039 0.165411 4.989484
v -1.357537 0.136987 5.288327
v 0.296818 0.165411 4.989484
v -0.171999 0.079717 5.412112
v 0.141315 0.136987 5.288327
v -0.171999 -0.079717 5.412112
v 0.296818 -0.165411 4.989484
v 0.141315 -0.136987 5.288327
v -1.608111 -0.182789 -4.074507
v -1.608111 0.182789 -4.074507
v -1.608111 -0.182789 -0.909991
v -1.608111 0.182789 -0.909991
v 0.391889 -0.182789 -4.074507
v 0.391889 0.182789 -4.074507
v 0.391889 -0.182789 -0.909991
v 0.391889 0.182789 -0.909991
v -1.513039 -0.165411 -4.989484
v -1.044223 -0.079717 -5.412112
v -1.357537 -0.136987 -5.288327
v -1.044223 0.079717 -5.412112
v -1.513039 0.165411 -4.989484
v -1.357537 0.136987 -5.288327
v 0.296818 0.165411 -4.989484
v -0.171999 0.079717 -5.412112
v 0.141315 0.136987 -5.288327
v -0.171999 -0.079717 -5.412112
v 0.296818 -0.165411 -4.989484
v 0.141315 -0.136987 -5.288327
v -2.486807 -1.738990 0.208114
v -2.486807 -0.970770 0.208114
v -2.486807 -1.738990 -0.208114
v -2.486807 -0.970770 -0.208114
v -1.718587 -1.738990 0.208114
v -1.718587 -0.970770 0.208114
v -1.718587 -1.738990 -0.208114
v -1.718587 -0.970770 -0.208114
v 0.099774 -1.738986 0.876754
v 0.099774 -0.970766 0.876754
v 0.099774 -1.738986 0.460526
v 0.099774 -0.970766 0.460526
v 0.867994 -1.738986 0.876754
v 0.867994 -0.970766 0.876754
v 0.867994 -1.738986 0.460526
v 0.867994 -0.970766 0.460526
v 0.099775 -1.738986 -0.876754
v 0.099775 -0.970766 -0.876754
v 0.099775 -1.738986 -0.460526
v 0.099775 -0.970766 -0.460526
v 0.867994 -1.738986 -0.876754
v 0.867994 -0.970766 -0.876754
v 0.867994 -1.738986 -0.460526
v 0.867994 -0.970766 -0.460526
vn -0.0000 -0.0000 1.0000
vn -0.0000 -0.0000 -1.0000
vn -0.0690 0.9976 -0.0000
vn -0.0000 -1.0000 -0.0000
vn -0.0000 1.0000 -0.0000
vn -1.0000 -0.0000 -0.0000
vn -0.3582 -0.9337 -0.0000
vn -0.3582 -0.0000 0.9337
vn -0.3582 0.9337 -0.0000
vn -0.3582 -0.0000 -0.9337
vn 0.9147 0.4041 -0.0000
vn -0.9147 0.4041 -0.0000
vn 0.2184 -0.0000 -0.9759
vn 0.1546 -0.0000 -0.9880
vn 0.1546 -0.0000 0.9880
vn 0.3570 -0.9341 -0.0000
vn 1.0000 -0.0000 -0.0000
vn 0.2184 -0.0000 0.9759
vn 0.8232 -0.5677 -0.0000
vn -0.7080 0.7062 -0.0000
vn 0.9946 -0.0000 0.1033
vn -0.0000 -0.9998 0.0190
vn -0.0000 0.9998 0.0190
vn -0.3674 -0.0000 0.9300
vn -0.8871 -0.0000 0.4616
vn 0.3674 -0.0000 0.9300
vn 0.8871 -0.0000 0.4616
vn -0.0000 -0.9955 0.0947
vn -0.0000 -0.9076 0.4199
vn -0.0000 0.9955 0.0947
vn -0.0000 0.9076 0.4199
vn -0.9946 -0.0000 0.1033
vn 0.9946 -0.0000 -0.1033
vn -0.0000 -0.9998 -0.0190
vn -0.0000 0.9998 -0.0190
vn -0.3674 -0.0000 -0.9300
vn -0.8871 -0.0000 -0.4616
vn 0.3674 -0.0000 -0.9300
vn 0.8871 -0.0000 -0.4616
vn -0.0000 -0.9955 -0.0947
vn -0.0000 -0.9076 -0.4199
vn -0.0000 0.9955 -0.0947
vn -0.0000 0.9076 -0.4199
vn -0.9946 -0.0000 -0.1033
vt 0.375000 1.000000
vt 0.125000 0.750000
vt 0.625000 1.000000
vt 0.875000 0.750000
vt 0.375000 0.250000
vt 0.125000 0.500000
vt 0.875000 0.500000
vt 0.625000 0.250000
vt 0.375000 0.750000
vt 0.625000 0.750000
vt 0.375000 0.500000
vt 0.625000 0.500000
vt 0.407287 0.217713
vt 0.375000 0.250000
vt 0.125000 0.500000
vt 0.375000 1.000000
vt 0.375000 0.000000
vt 0.125000 0.750000
vt 0.407287 0.032287
vt 0.625000 1.000000
vt 0.875000 0.750000
vt 0.625000 0.000000
vt 0.592713 0.032287
vt 0.875000 0.500000
vt 0.625000 0.250000
vt 0.592713 0.217713
vt 0.289084 0.500000
vt 0.375000 0.414084
vt 0.710916 0.500000
vt 0.625000 0.414084
vt 0.289084 0.750000
vt 0.375000 0.835916
vt 0.710916 0.750000
vt 0.625000 0.835916
vt 0.375000 0.274690
vt 0.149690 0.500000
vt 0.625000 0.975310
vt 0.850310 0.750000
vt 0.850310 0.500000
vt 0.625000 0.274690
vt 0.149690 0.750000
vt 0.375000 0.975310
vt 0.850310 0.500000
vt 0.625000 0.274690
vt 0.710916 0.500000
vt 0.625000 0.414084
vt 0.710916 0.750000
vt 0.625000 0.835916
vt 0.625000 0.975310
vt 0.850310 0.750000
vt 0.625000 0.500000
vt 0.375000 0.500000
vt 0.375000 0.750000
vt 0.625000 0.750000
vt 0.625000 0.500000
vt 0.375000 0.500000
vt 0.375000 0.750000
vt 0.625000 0.750000
vt 0.125000 0.750000
vt 0.375000 0.000000
vt 0.875000 0.750000
vt 0.625000 0.000000
vt 0.375000 0.250000
vt 0.125000 0.500000
vt 0.625000 0.250000
vt 0.875000 0.500000
vt 0.375000 0.750000
vt 0.625000 0.750000
vt 0.375000 0.500000
vt 0.625000 0.500000
vt 0.125000 0.750000
vt 0.375000 0.000000
vt 0.436686 0.938314
vt 0.391200 1.000000
vt 0.391200 0.000000
vt 0.141200 0.750000
vt 0.375000 0.983800
vt 0.563314 0.938314
vt 0.875000 0.750000
vt 0.625000 0.000000
vt 0.608800 1.000000
vt 0.608800 0.000000
vt 0.858800 0.750000
vt 0.625000 0.983800
vt 0.625000 0.750000
vt 0.563314 0.811686
vt 0.608800 0.750000
vt 0.641200 0.750000
vt 0.625000 0.766200
vt 0.436686 0.811686
vt 0.375000 0.750000
vt 0.391200 0.750000
vt 0.358800 0.750000
vt 0.375000 0.766200
vt 0.125000 0.750000
vt 0.375000 0.000000
vt 0.875000 0.750000
vt 0.625000 0.000000
vt 0.375000 0.250000
vt 0.125000 0.500000
vt 0.625000 0.250000
vt 0.875000 0.500000
vt 0.375000 0.750000
vt 0.625000 0.750000
vt 0.375000 0.500000
vt 0.625000 0.500000
vt 0.125000 0.750000
vt 0.375000 0.000000
vt 0.436686 0.938314
vt 0.391200 1.000000
vt 0.391200 0.000000
vt 0.141200 0.750000
vt 0.375000 0.983800
vt 0.563314 0.938314
vt 0.875000 0.750000
vt 0.625000 0.000000
vt 0.608800 1.000000
vt 0.608800 0.000000
vt 0.858800 0.750000
vt 0.625000 0.983800
vt 0.625000 0.750000
vt 0.563314 0.811686
vt 0.608800 0.750000
vt 0.641200 0.750000
vt 0.625000 0.766200
vt 0.436686 0.811686
vt 0.375000 0.750000
vt 0.391200 0.750000
vt 0.358800 0.750000
vt 0.375000 0.766200
vt 0.375000 0.000000
vt 0.375000 1.000000
vt 0.125000 0.750000
vt 0.625000 0.000000
vt 0.625000 1.000000
vt 0.875000 0.750000
vt 0.375000 0.250000
vt 0.125000 0.500000
vt 0.625000 0.250000
vt 0.875000 0.500000
vt 0.375000 0.750000
vt 0.625000 0.750000
vt 0.375000 0.500000
vt 0.625000 0.500000
vt 0.375000 0.000000
vt 0.375000 1.000000
vt 0.125000 0.750000
vt 0.625000 0.000000
vt 0.625000 1.000000
vt 0.875000 0.750000
vt 0.375000 0.250000
vt 0.125000 0.500000
vt 0.625000 0.250000
vt 0.875000 0.500000
vt 0.375000 0.750000
vt 0.625000 0.750000
vt 0.375000 0.500000
vt 0.625000 0.500000
vt 0.375000 0.000000
vt 0.375000 1.000000
vt 0.125000 0.750000
vt 0.625000 0.000000
vt 0.625000 1.000000
vt 0.875000 0.750000
vt 0.375000 0.250000
vt 0.125000 0.500000
vt 0.625000 0.250000
vt 0.875000 0.500000
vt 0.375000 0.750000
vt 0.625000 0.750000
vt 0.375000 0.500000
vt 0.625000 0.500000
s 0
usemtl Avioneta
f 1/1/1 2/3/1 13/20/1 11/16/1
f 17/28/2 18/30/2 8/12/2 7/11/2
f 8/12/3 6/10/3 32/54/3 29/51/3
f 24/42/1 22/37/1 2/3/1 1/1/1
f 17/27/4 7/11/4 5/9/4 19/31/4
f 23/39/5 4/7/5 2/4/5 22/38/5
f 4/8/2 3/5/2 10/14/2 15/25/2
f 2/4/5 4/7/5 15/24/5 13/21/5
f 12/19/6 14/23/6 16/26/6 9/13/6
f 10/14/7 11/17/7 12/19/7 9/13/7
f 11/17/8 13/22/8 14/23/8 12/19/8
f 13/22/9 15/25/9 16/26/9 14/23/9
f 15/25/10 10/14/10 9/13/10 16/26/10
f 3/6/4 1/2/4 11/18/4 10/15/4
f 8/12/5 18/29/5 20/33/5 6/10/5
f 21/36/4 17/27/4 19/31/4 24/41/4
f 5/9/1 6/10/1 20/34/1 19/32/1
f 21/35/2 23/40/2 18/30/2 17/28/2
f 3/5/2 4/8/2 23/40/2 21/35/2
f 3/6/4 21/36/4 24/41/4 1/2/4
f 19/32/1 20/34/1 22/37/1 24/42/1
f 26/45/5 25/43/5 28/50/5 27/47/5
f 30/52/13 29/51/13 33/55/13 34/56/13
f 7/11/14 8/12/14 29/51/14 30/52/14
f 6/10/15 5/9/15 31/53/15 32/54/15
f 5/9/16 7/11/16 30/52/16 31/53/16
f 34/56/17 33/55/17 36/58/17 35/57/17
f 32/54/18 31/53/18 35/57/18 36/58/18
f 31/53/19 30/52/19 34/56/19 35/57/19
f 29/51/20 32/54/20 36/58/20 33/55/20
f 37/60/6 38/62/6 40/65/6 39/63/6
f 39/63/2 40/65/2 44/70/2 43/69/2
f 43/69/17 44/70/17 42/68/17 41/67/17
f 41/67/21 42/68/21 51/85/21 55/91/21
f 39/64/4 43/69/4 41/67/4 37/59/4
f 44/70/5 40/66/5 38/61/5 42/68/5
f 37/59/22 41/67/22 55/91/22 45/71/22
f 54/90/1 52/86/1 48/78/1 46/73/1
f 42/68/23 38/61/23 49/79/23 51/85/23
f 46/73/24 48/78/24 50/81/24 47/74/24
f 47/75/25 50/82/25 49/80/25 45/72/25
f 52/86/26 54/90/26 56/92/26 53/87/26
f 53/87/27 56/92/27 55/91/27 51/85/27
f 45/71/28 55/91/28 56/93/28 47/76/28
f 47/77/29 56/94/29 54/90/29 46/73/29
f 51/85/30 49/79/30 50/83/30 53/88/30
f 53/89/31 50/84/31 48/78/31 52/86/31
f 38/62/32 37/60/32 45/72/32 49/80/32
f 57/96/6 59/99/6 60/101/6 58/98/6
f 59/99/1 63/105/1 64/106/1 60/101/1
f 63/105/17 61/103/17 62/104/17 64/106/17
f 61/103/33 75/127/33 71/121/33 62/104/33
f 59/100/4 57/95/4 61/103/4 63/105/4
f 64/106/5 62/104/5 58/97/5 60/102/5
f 57/95/34 65/107/34 75/127/34 61/103/34
f 74/126/2 66/109/2 68/114/2 72/122/2
f 62/104/35 71/121/35 69/115/35 58/97/35
f 66/109/36 67/110/36 70/117/36 68/114/36
f 67/111/37 65/108/37 69/116/37 70/118/37
f 72/122/38 73/123/38 76/128/38 74/126/38
f 73/123/39 71/121/39 75/127/39 76/128/39
f 65/107/40 67/112/40 76/129/40 75/127/40
f 67/113/41 66/109/41 74/126/41 76/130/41
f 71/121/42 73/124/42 70/119/42 69/115/42
f 73/125/43 72/122/43 68/114/43 70/120/43
f 58/98/44 69/116/44 65/108/44 57/96/44
usemtl Nubes
f 20/33/11 18/29/11 26/45/11 27/47/11
f 22/37/1 20/34/1 27/48/1 28/49/1
f 23/39/12 22/38/12 28/50/12 25/43/12
f 18/30/2 23/40/2 25/44/2 26/46/2
usemtl Gas_Tapa
f 77/131/6 78/134/6 80/139/6 79/137/6
f 79/137/2 80/139/2 84/144/2 83/143/2
f 83/143/17 84/144/17 82/142/17 81/141/17
f 81/141/1 82/142/1 78/135/1 77/132/1
f 79/138/4 83/143/4 81/141/4 77/133/4
f 84/144/5 80/140/5 78/136/5 82/142/5
f 85/145/6 86/148/6 88/153/6 87/151/6
f 87/151/2 88/153/2 92/158/2 91/157/2
f 91/157/17 92/158/17 90/156/17 89/155/17
f 89/155/1 90/156/1 86/149/1 85/146/1
f 87/152/4 91/157/4 89/155/4 85/147/4
f 92/158/5 88/154/5 86/150/5 90/156/5
f 93/159/6 95/165/6 96/167/6 94/162/6
f 95/165/1 99/171/1 100/172/1 96/167/1
f 99/171/17 97/169/17 98/170/17 100/172/17
f 97/169/2 93/160/2 94/163/2 98/170/2
f 95/166/4 93/161/4 97/169/4 99/171/4
f 100/172/5 98/170/5 94/164/5 96/168/5
