# Blender 3.3.7
# www.blender.org
mtllib Casa.mtl
o Casa
v -2.105097 0.061296 2.105097
v -1.080241 3.921267 3.219165
v -2.105097 0.061296 -2.105097
v -2.105097 4.271490 -2.105097
v 2.105097 0.061296 2.105097
v 1.080241 3.921267 3.219165
v 2.105097 0.061296 -2.105097
v 2.105097 4.271490 -2.105097
v -2.105097 0.061296 6.953225
v -1.080241 3.097635 5.839156
v 1.080241 3.097635 5.839156
v 2.105097 0.061296 6.953225
v 2.105097 4.271490 2.105097
v -2.105097 4.271490 2.105097
v 2.105097 2.747412 6.953225
v -2.105097 2.747412 6.953225
v 0.789741 6.610769 3.571451
v -0.789741 6.610769 3.571451
v 0.789741 6.008630 5.486870
v -0.789741 6.008630 5.486870
v 1.050782 7.489878 3.254890
v -1.050782 7.489878 3.254890
v 1.050782 6.688707 5.803431
v -1.050782 6.688707 5.803431
v -0.866580 5.982792 0.866580
v -0.866580 5.982792 -0.866580
v 0.866580 5.982792 -0.866580
v 0.866580 5.982792 0.866580
v -2.105097 0.061296 -0.701699
v -2.105097 0.061296 0.701699
v -2.105097 4.271490 0.701699
v -2.105097 4.271490 -0.701699
v 2.105097 0.061296 0.701699
v 2.105097 0.061296 -0.701699
v 2.105097 4.271490 -0.701699
v 2.105097 4.271490 0.701699
v -0.866580 5.982792 0.288860
v -0.866580 5.982792 -0.288860
v 0.866580 5.982792 -0.288860
v 0.866580 5.982792 0.288860
v -2.105097 2.835596 2.105097
v -2.105097 2.835596 -2.105097
v 2.105097 2.835596 -2.105097
v 2.105097 2.835596 2.105097
v -2.105097 1.831308 6.953225
v 2.105097 1.831308 6.953225
v 2.105097 2.835596 -0.701699
v 2.105097 2.835596 0.701699
v -2.105097 2.835596 0.701699
v -2.105097 2.835596 -0.701699
v -2.105097 1.352180 -2.105097
v 2.105097 1.352180 -2.105097
v 2.105097 1.352180 2.105097
v 2.105097 0.884884 6.953225
v 2.105097 1.352180 -0.701699
v 2.105097 1.352180 0.701699
v -2.105097 1.352180 0.701699
v -2.105097 1.352180 -0.701699
v -2.105097 1.352180 2.105097
v -2.105097 0.884884 6.953225
vn -1.0000 -0.0000 -0.0000
vn -0.0000 -0.0000 -1.0000
vn 1.0000 -0.0000 -0.0000
vn -0.0000 -1.0000 -0.0000
vn 0.8101 0.5863 -0.0000
vn -0.0000 -0.0000 1.0000
vn -0.9941 0.1031 0.0324
vn -0.0000 0.9540 0.2999
vn 0.9436 -0.3159 -0.0993
vn -0.0000 0.1299 -0.9915
vn 0.9941 0.1031 0.0324
vn -0.0000 0.1201 0.9928
vn -0.0000 -0.4220 0.9066
vn -0.9436 -0.3159 -0.0993
vn -0.0000 -0.3388 -0.9409
vn -0.0000 1.0000 -0.0000
vn -0.8101 0.5863 -0.0000
vn -0.0000 0.5863 0.8101
vn -0.0000 0.5863 -0.8101
vt 0.125000 0.750000
vt 0.375000 0.000000
vt 0.845447 0.750000
vt 0.125000 0.500000
vt 0.375000 0.250000
vt 0.625000 0.250000
vt 0.375000 0.750000
vt 0.654553 0.750000
vt 0.375000 0.500000
vt 0.625000 0.500000
vt 0.375000 0.000000
vt 0.125000 0.750000
vt 0.375000 1.000000
vt 0.845447 0.750000
vt 0.654553 0.750000
vt 0.375000 0.750000
vt 0.625000 0.750000
vt 0.875000 0.750000
vt 0.625000 0.000000
vt 0.625000 0.750000
vt 0.625000 1.000000
vt 0.875000 0.750000
vt 0.625000 0.000000
vt 0.654553 0.750000
vt 0.845447 0.750000
vt 0.654553 0.750000
vt 0.845447 0.750000
vt 0.654553 0.750000
vt 0.845447 0.750000
vt 0.654553 0.750000
vt 0.845447 0.750000
vt 0.625000 0.000000
vt 0.875000 0.750000
vt 0.625000 0.250000
vt 0.875000 0.500000
vt 0.625000 0.500000
vt 0.625000 0.750000
vt 0.125000 0.583333
vt 0.375000 0.166667
vt 0.125000 0.666667
vt 0.375000 0.083333
vt 0.625000 0.083333
vt 0.625000 0.166667
vt 0.375000 0.666667
vt 0.375000 0.583333
vt 0.625000 0.583333
vt 0.625000 0.666667
vt 0.625000 0.083333
vt 0.875000 0.666667
vt 0.625000 0.166667
vt 0.875000 0.583333
vt 0.625000 0.583333
vt 0.625000 0.666667
vt 0.539737 0.000000
vt 0.539737 0.250000
vt 0.539737 0.500000
vt 0.539737 0.750000
vt 0.539737 1.000000
vt 0.539737 0.000000
vt 0.539737 0.750000
vt 0.539737 0.583333
vt 0.539737 0.666667
vt 0.539737 0.083333
vt 0.539737 0.166667
vt 0.451652 0.250000
vt 0.451652 0.500000
vt 0.451652 0.750000
vt 0.451652 0.750000
vt 0.451652 0.583333
vt 0.451652 0.666667
vt 0.451652 0.083333
vt 0.451652 0.166667
vt 0.451652 0.000000
vt 0.451652 1.000000
vt 0.451652 0.000000
s 0
usemtl Gas_Tapa
f 1/1/4 5/7/4 12/16/4 9/12/4
f 2/3/7 10/14/7 20/27/7 18/25/7
f 19/26/9 17/24/9 21/28/9 23/30/9
f 6/8/10 2/3/10 18/25/10 17/24/10
f 11/15/11 6/8/11 17/24/11 19/26/11
f 10/14/12 11/15/12 19/26/12 20/27/12
f 21/28/8 22/29/8 24/31/8 23/30/8
f 20/27/13 19/26/13 23/30/13 24/31/13
f 18/25/14 20/27/14 24/31/14 22/29/14
f 17/24/15 18/25/15 22/29/15 21/28/15
f 57/71/1 49/63/1 50/64/1 58/72/1
f 30/41/1 57/71/1 58/72/1 29/39/1
usemtl Casa
f 50/64/1 32/43/1 4/6/1 42/55/1
f 42/55/2 4/6/2 8/10/2 43/56/2
f 48/62/3 36/47/3 13/17/3 44/57/3
f 59/73/1 1/2/1 9/11/1 60/75/1
f 30/40/4 33/44/4 5/7/4 1/1/4
f 35/46/5 8/10/5 27/36/5 39/52/5
f 46/60/6 15/20/6 16/21/6 45/58/6
f 44/57/3 13/17/3 15/20/3 46/60/3
f 2/3/8 6/8/8 13/17/8 14/18/8
f 11/15/8 10/14/8 16/22/8 15/20/8
f 10/14/8 2/3/8 14/18/8 16/22/8
f 6/8/8 11/15/8 15/20/8 13/17/8
f 40/53/16 37/49/16 25/33/16 28/37/16
f 31/42/17 14/19/17 25/32/17 37/48/17
f 14/18/18 13/17/18 28/37/18 25/33/18
f 8/10/19 4/6/19 26/34/19 27/36/19
f 4/6/17 32/43/17 38/50/17 26/34/17
f 32/43/17 31/42/17 37/48/17 38/50/17
f 27/36/16 26/35/16 38/51/16 39/52/16
f 39/52/16 38/51/16 37/49/16 40/53/16
f 13/17/5 36/47/5 40/53/5 28/37/5
f 36/47/5 35/46/5 39/52/5 40/53/5
f 3/4/4 7/9/4 34/45/4 29/38/4
f 29/38/4 34/45/4 33/44/4 30/40/4
f 43/56/3 8/10/3 35/46/3 47/61/3
f 47/61/3 35/46/3 36/47/3 48/62/3
f 41/54/1 14/19/1 31/42/1 49/63/1
f 49/63/1 31/42/1 32/43/1 50/64/1
f 59/73/1 41/54/1 49/63/1 57/71/1
f 55/69/3 47/61/3 48/62/3 56/70/3
f 52/66/3 43/56/3 47/61/3 55/69/3
f 53/67/3 44/57/3 46/60/3 54/68/3
f 54/68/6 46/60/6 45/58/6 60/74/6
f 14/19/1 41/54/1 45/59/1 16/23/1
f 56/70/3 48/62/3 44/57/3 53/67/3
f 51/65/2 42/55/2 43/56/2 52/66/2
f 58/72/1 50/64/1 42/55/1 51/65/1
f 29/39/1 58/72/1 51/65/1 3/5/1
f 3/5/2 51/65/2 52/66/2 7/9/2
f 33/44/3 56/70/3 53/67/3 5/7/3
f 12/16/6 54/68/6 60/74/6 9/13/6
f 5/7/3 53/67/3 54/68/3 12/16/3
f 7/9/3 52/66/3 55/69/3 34/45/3
f 34/45/3 55/69/3 56/70/3 33/44/3
f 1/2/1 59/73/1 57/71/1 30/41/1
f 41/54/1 59/73/1 60/75/1 45/59/1
