# Blender 3.3.7
# www.blender.org
mtllib Roca3.mtl
o Roca3
v -0.694992 0.003060 0.694363
v -0.536149 1.312774 0.698272
v -0.695018 0.003074 -0.694553
v -1.252835 1.181947 -0.477520
v 0.802294 -0.034948 0.742325
v 0.805254 0.880971 0.877699
v 0.694588 0.003126 -0.694365
v 0.727362 1.386592 -0.327253
v -0.823861 -0.061566 -0.017873
v -0.822907 0.626175 0.701655
v -0.974569 1.275321 0.024142
v -0.902234 0.608303 -0.696739
v -0.045368 0.027295 -0.757899
v -0.050252 1.404440 -0.565985
v 0.734436 0.720613 -0.615874
v 0.777377 -0.114512 0.041795
v 0.796711 1.193794 0.185441
v 1.024532 0.422471 0.889143
v 0.004405 -0.027607 0.810336
v 0.334226 1.151392 0.616327
v 0.210690 1.295741 0.079061
v -0.001102 0.003275 -0.000558
v 0.032182 0.564432 1.166189
v 1.088810 0.197565 0.195498
v -0.233999 0.838109 -0.978766
v -1.274691 0.406788 -0.080131
vn -0.9962 -0.0157 -0.0854
vn 0.3235 0.4326 -0.8415
vn 0.9415 0.3318 0.0589
vn -0.1380 0.4476 0.8835
vn -0.0785 -0.9963 0.0337
vn 0.0690 0.9960 0.0559
vn 0.2137 0.9229 0.3202
vn 0.0229 0.9690 0.2458
vn -0.1002 0.9931 0.0604
vn 0.0207 -0.9996 0.0203
vn 0.0585 -0.9966 -0.0582
vn -0.0867 -0.9924 -0.0868
vn -0.3496 -0.2946 0.8894
vn 0.1320 -0.4536 0.8814
vn 0.1390 0.4599 0.8770
vn 0.7828 -0.6030 0.1538
vn 0.9074 -0.2303 -0.3517
vn 0.9589 0.2054 -0.1958
vn 0.2364 -0.0673 -0.9693
vn -0.2100 -0.2091 -0.9551
vn -0.2750 0.4351 -0.8574
vn -0.7702 -0.4962 -0.4007
vn -0.8190 -0.4143 0.3971
vn -0.8390 0.2866 0.4625
vt 0.125000 0.750000
vt 0.375000 1.000000
vt 0.375000 0.000000
vt 0.625000 1.000000
vt 0.875000 0.750000
vt 0.625000 0.000000
vt 0.125000 0.500000
vt 0.375000 0.250000
vt 0.875000 0.500000
vt 0.625000 0.250000
vt 0.375000 0.750000
vt 0.625000 0.750000
vt 0.375000 0.500000
vt 0.625000 0.500000
vt 0.125000 0.625000
vt 0.375000 0.125000
vt 0.500000 1.000000
vt 0.500000 0.000000
vt 0.875000 0.625000
vt 0.625000 0.125000
vt 0.500000 0.250000
vt 0.250000 0.500000
vt 0.375000 0.375000
vt 0.750000 0.500000
vt 0.625000 0.375000
vt 0.500000 0.500000
vt 0.375000 0.625000
vt 0.625000 0.625000
vt 0.500000 0.750000
vt 0.250000 0.750000
vt 0.375000 0.875000
vt 0.750000 0.750000
vt 0.625000 0.875000
vt 0.750000 0.625000
vt 0.250000 0.625000
vt 0.500000 0.875000
vt 0.500000 0.625000
vt 0.500000 0.375000
vt 0.500000 0.125000
s 0
usemtl Roca
f 26/39/1 11/20/1 4/10/1 12/21/1
f 25/38/2 14/25/2 8/14/2 15/26/2
f 24/37/3 17/28/3 6/12/3 18/29/3
f 23/36/4 20/33/4 2/4/4 10/17/4
f 22/35/5 16/27/5 5/11/5 19/30/5
f 21/34/6 11/19/6 2/5/6 20/32/6
f 17/28/7 21/34/7 20/32/7 6/12/7
f 8/14/8 14/24/8 21/34/8 17/28/8
f 14/24/9 4/9/9 11/19/9 21/34/9
f 9/15/10 22/35/10 19/30/10 1/1/10
f 3/7/11 13/22/11 22/35/11 9/15/11
f 13/22/12 7/13/12 16/27/12 22/35/12
f 19/31/13 23/36/13 10/17/13 1/2/13
f 5/11/14 18/29/14 23/36/14 19/31/14
f 18/29/15 6/12/15 20/33/15 23/36/15
f 16/27/16 24/37/16 18/29/16 5/11/16
f 7/13/17 15/26/17 24/37/17 16/27/17
f 15/26/18 8/14/18 17/28/18 24/37/18
f 13/23/19 25/38/19 15/26/19 7/13/19
f 3/8/20 12/21/20 25/38/20 13/23/20
f 12/21/21 4/10/21 14/25/21 25/38/21
f 9/16/22 26/39/22 12/21/22 3/8/22
f 1/3/23 10/18/23 26/39/23 9/16/23
f 10/18/24 2/6/24 11/20/24 26/39/24
